<svg width="513" height="485" viewBox="0 0 513 485" fill="none" xmlns="http://www.w3.org/2000/svg">
<path fill-rule="evenodd" clip-rule="evenodd" d="M299.795 1.46974C293.755 4.49103 286.585 11.6036 281.153 19.9652C272.605 33.1224 263.186 53.521 254.856 76.9155C253.008 82.1061 250.899 87.8175 250.17 89.6073C249.441 91.3972 248.163 95.3512 247.332 98.3939C246.499 101.437 245.348 105.391 244.773 107.181C244.198 108.97 242.237 115.121 240.416 120.849C235.704 135.664 232.813 144.626 232.018 146.883C230.946 149.926 229.408 155.588 228.395 160.226C227.887 162.553 227.193 165.721 226.853 167.266C226.514 168.811 226.066 170.35 225.86 170.685C225.653 171.02 225.235 172.684 224.931 174.384C224.627 176.083 223.606 180.402 222.663 183.982C219.217 197.057 218.392 200.317 217.722 203.508C217.347 205.298 216.625 207.991 216.119 209.493C215.015 212.763 212.308 223.923 210.545 232.471C209.844 235.872 208.948 239.972 208.554 241.583C207.674 245.183 206.747 250.231 206.383 253.395C206.234 254.701 205.22 259.436 204.131 263.919C203.042 268.401 202.151 272.615 202.151 273.284C202.151 274.571 197.662 283.613 195.497 286.687C193.976 288.845 181.299 295.146 179.706 294.535C177.24 293.588 181.177 284.621 185.862 280.52C190.984 276.036 189.881 274.298 182.669 275.489C180.379 275.867 180.292 274.305 182.334 269.444C183.281 267.187 184.307 264.315 184.612 263.062C184.917 261.809 186.078 258.294 187.192 255.251C189.65 248.536 190.902 244.457 192.09 239.299C192.586 237.148 193.882 233.227 194.97 230.586C196.058 227.944 196.949 225.3 196.949 224.709C196.949 224.118 197.524 222.506 198.227 221.126C198.93 219.746 200.096 216.278 200.817 213.42C201.54 210.561 202.412 207.883 202.755 207.469C203.441 206.642 207.113 196.384 208.018 192.769C208.991 188.879 210.562 183.496 211.527 180.751C212.034 179.306 213.672 174.17 215.167 169.338C216.662 164.505 219.047 157.329 220.467 153.392C221.888 149.454 223.277 145.354 223.556 144.28C223.835 143.206 224.798 140.716 225.698 138.747C226.598 136.778 228.138 132.824 229.121 129.961C230.104 127.097 231.305 123.98 231.792 123.034C232.77 121.133 238.808 106.383 242.145 97.7431C243.32 94.7003 245.346 89.7212 246.646 86.6784C249.241 80.602 249.386 78.6481 247.261 78.3448C244.01 77.8808 239.61 85.9892 231.612 107.181C227.995 116.763 224.838 124.536 224.209 125.405C223.95 125.763 223.392 127.374 222.967 128.984C222.543 130.595 221.37 133.671 220.359 135.818C219.349 137.966 217.16 143.97 215.494 149.161C208.743 170.192 205.364 179.142 196.691 198.952C190.364 213.404 188.482 217.838 184.402 227.915C180.307 238.032 179.23 240.569 176.943 245.488C175.695 248.173 174.306 251.395 173.856 252.648C173.406 253.901 166.551 267.887 158.622 283.726C145.756 309.429 144.041 312.527 142.678 312.527C141.564 312.527 140.965 311.997 140.469 310.574C140.095 309.501 139.537 308.622 139.229 308.622C138.003 308.622 136.467 310.395 135.283 313.178C133.933 316.351 132.918 317.405 129.117 319.575C124.75 322.068 124.096 321.376 125.388 315.628C126.328 311.448 127.231 306.279 128.035 300.486C128.431 297.622 128.905 294.547 129.087 293.652C129.268 292.757 129.649 289.243 129.933 285.842C130.46 279.538 132.173 270.291 133.247 267.943C133.576 267.227 134.135 264.884 134.491 262.736C134.846 260.588 135.903 255.17 136.838 250.695C137.774 246.221 138.786 241.176 139.089 239.484C139.391 237.793 140.081 234.677 140.623 232.56C141.165 230.443 141.802 227.141 142.039 225.221C142.55 221.086 141.631 223.377 158.444 184.308C161.545 177.101 163.664 171.969 167.852 161.527C171.481 152.477 176.872 137.807 178.496 132.564C180.835 125.01 183.304 116.637 183.964 114.015C184.28 112.762 185.689 107.929 187.095 103.275C188.502 98.6217 189.94 93.3498 190.292 91.5599C190.644 89.77 191.899 84.5918 193.082 80.0527C195.524 70.6796 195.349 69.7561 191.13 69.7561C188.471 69.7561 187.726 70.3991 183.668 76.1944C181.45 79.3628 176.632 88.7261 174.237 94.5246C173.727 95.7579 172.484 98.6243 171.473 100.895C170.463 103.166 169.636 105.565 169.636 106.226C169.636 106.888 169.343 107.61 168.985 107.831C168.628 108.053 168.335 108.767 168.335 109.419C168.335 110.579 165.446 120.239 163.164 126.706C162.533 128.496 161.502 131.718 160.872 133.866C160.243 136.014 159.491 138.503 159.202 139.398C158.913 140.293 158.032 143.222 157.243 145.907C156.455 148.592 154.855 153.864 153.687 157.622C152.519 161.381 151.058 166.653 150.44 169.338C149.823 172.023 148.939 175.537 148.477 177.148C148.015 178.759 146.897 183.006 145.991 186.586C143.119 197.934 140.842 206.658 139.877 210.017C139.362 211.806 138.559 215.321 138.092 217.827C137.458 221.23 135.416 226.136 130.019 237.218C126.045 245.377 122.123 253.139 121.303 254.466C120.482 255.793 119.142 258.489 118.325 260.458C117.508 262.427 115.004 267.26 112.761 271.197C105.451 284.029 98.331 297.093 94.8485 304.066C92.9711 307.825 88.6732 315.953 85.2968 322.129C81.9203 328.305 77.8579 336.106 76.2678 339.465C74.6785 342.823 72.9903 345.893 72.5175 346.286C71.0003 347.546 58.6834 353.404 55.415 354.421C51.5261 355.63 46.2553 357.876 41.5243 360.338C39.5571 361.362 34.7286 363.293 30.7942 364.629C26.8598 365.965 21.1533 367.981 18.1131 369.108C15.0729 370.234 10.3907 371.749 7.70813 372.473C1.12568 374.249 -0.225665 375.188 0.0286062 377.812C0.442204 382.074 4.32391 382.066 14.5364 377.781C16.6824 376.88 20.3404 375.473 22.6653 374.654C27.0315 373.116 39.9577 368.002 47.3771 364.877C49.702 363.898 52.4821 362.859 53.5551 362.569C54.6281 362.278 57.6807 361.293 60.3385 360.379C65.8427 358.486 66.48 358.764 65.9949 362.843C65.7042 365.282 65.7322 365.318 67.7416 365.121C69.465 364.953 69.9384 364.508 70.774 362.272C72.9604 356.42 73.1197 356.334 90.6228 351.546C94.1995 350.568 98.0039 349.464 99.0769 349.093C101.138 348.38 106.616 347.358 112.156 346.652C115.396 346.238 115.489 346.273 115.822 348.013C116.009 348.995 115.904 351.737 115.586 354.105C115.27 356.475 114.732 361.195 114.392 364.596C114.052 367.997 113.473 372.518 113.105 374.642C112.738 376.767 112.133 382.05 111.759 386.382C111.387 390.714 110.647 397.03 110.116 400.418C109.585 403.805 108.727 409.945 108.211 414.061C107.695 418.178 107.111 422.498 106.914 423.662C105.973 429.216 105.975 429.659 106.948 430.633C108.451 432.137 110.924 431.87 112.097 430.076C113.13 428.499 117.599 409.798 117.607 407.022C117.609 406.193 117.881 405.009 118.212 404.391C118.542 403.773 119.125 400.79 119.508 397.762C120.399 390.707 121.29 386.392 123.227 379.761C124.085 376.826 124.732 374.19 124.665 373.903C124.469 373.051 125.388 368.387 126.373 365.247C126.878 363.636 128.084 358.657 129.053 354.182C130.022 349.707 131.219 345.424 131.714 344.661C132.771 343.033 134.917 342.611 145.011 342.043L152.24 341.636L151.895 343.841C151.705 345.054 150.948 348.097 150.213 350.602C144.504 370.062 140.959 389.807 141.622 398.441C141.741 399.986 144.367 401.695 146.622 401.695C149.983 401.695 154.797 397.511 157.399 392.329C158.498 390.142 160.384 386.857 161.59 385.03C162.796 383.204 163.783 381.526 163.783 381.302C163.783 381.079 164.858 378.619 166.171 375.838C168.443 371.025 169.196 367.193 168.087 366.083C167.364 365.359 166.113 367.227 162.108 375.01C155.443 387.961 150.118 395.837 148.029 395.837C146.79 395.837 146.755 395.553 147.21 389.182C147.472 385.521 148.08 381.408 148.563 380.04C149.045 378.673 149.627 376.03 149.856 374.167C150.386 369.871 153.653 357.095 155.447 352.306C156.201 350.295 156.945 347.468 157.103 346.024C157.529 342.101 159.116 340.392 162.546 340.157C168.591 339.745 191.478 339.799 192.593 340.228C193.446 340.556 193.674 341.143 193.433 342.387C191.051 354.677 190.211 402.944 192.027 423.173C193.561 440.272 194.327 446.615 195.443 451.486C196.77 457.276 201.994 467.528 205.573 471.362C208.323 474.31 215.33 479.951 218.409 481.696C221.826 483.633 227.884 484.995 233.105 485C237.914 485.004 238.76 484.799 242.813 482.647C247.332 480.247 252.225 476.258 252.225 474.975C252.225 474.585 253.252 473.387 254.507 472.313C257.46 469.787 260.229 465.339 265.905 454.003C270.194 445.439 271.046 443.196 273.295 434.563C279.651 410.156 278.14 389.252 268.638 370.128C265.194 363.197 262.004 358.611 258.451 355.484C257.028 354.231 255.401 352.767 254.834 352.23C250.186 347.822 242.21 343.375 236.293 341.891C234.862 341.532 231.204 340.53 228.164 339.665C220.189 337.396 213.93 336.572 200.287 335.996C199.677 335.97 199.532 335.499 199.824 334.494C200.239 333.064 200.773 328.35 202.09 314.466C202.448 310.7 203.386 304.403 204.176 300.472C205.434 294.214 205.899 293.004 207.926 290.723C210.141 288.23 216.426 284.903 220.36 284.14C221.997 283.822 223.514 283.165 233.041 278.645C235.902 277.287 240.11 275.697 242.391 275.112C244.672 274.527 247.201 273.613 248.011 273.082C248.822 272.55 253.247 270.78 257.846 269.148C262.444 267.516 269.719 264.924 274.011 263.389C278.303 261.854 282.839 260.232 284.09 259.786C285.342 259.341 287.098 258.692 287.992 258.346C288.886 257.999 291.211 257.296 293.158 256.785C295.104 256.273 297.006 255.624 297.385 255.344C297.763 255.064 299.389 254.455 300.999 253.991C305.485 252.697 306.814 252.25 311.729 250.383C314.232 249.431 318.329 248.069 320.833 247.356C323.337 246.642 326.001 245.658 326.753 245.17C327.506 244.681 329.262 244.086 330.655 243.848C333.862 243.299 341.445 240.901 342.261 240.178C342.6 239.877 343.301 239.631 343.816 239.631C344.909 239.631 357.942 235.671 364.079 233.474C366.404 232.642 369.769 231.602 371.557 231.163C376.607 229.924 390.845 225.98 393.018 225.217C394.091 224.841 395.993 224.285 397.245 223.983C402.304 222.759 405.576 221.909 409.6 220.773C411.925 220.117 415.437 219.126 417.404 218.571C421.374 217.452 429.843 215.553 432.361 215.216C434.353 214.951 439.568 213.061 440.542 212.251C440.934 211.926 443.571 211.333 446.4 210.934C449.23 210.535 454.472 209.476 458.049 208.581C461.625 207.686 466.015 206.715 467.803 206.423C469.592 206.132 473.332 205.136 476.115 204.212C478.898 203.288 481.846 202.532 482.666 202.532C483.486 202.532 486.601 201.799 489.589 200.904C492.576 200.01 496.032 199.277 497.269 199.277C498.506 199.277 500.722 198.961 502.194 198.575C506.361 197.482 509.263 196.772 511.212 196.368C512.196 196.165 513 195.711 513 195.36C513 194.555 504.199 194.513 502.711 195.31C502.106 195.634 498.833 196.378 495.438 196.963C492.042 197.548 487.821 198.455 486.056 198.977C484.293 199.501 481.972 199.928 480.9 199.928C479.828 199.928 478.052 200.204 476.954 200.54C475.855 200.876 473.347 201.454 471.38 201.823C462.255 203.536 457.021 204.725 452.521 206.107C447.696 207.589 435.46 210.549 431.061 211.299C429.809 211.512 427.317 211.935 425.523 212.239C423.729 212.543 420.071 213.372 417.394 214.082C414.717 214.791 410.917 215.743 408.95 216.198C406.983 216.653 404.177 217.717 402.715 218.564C400.867 219.636 399.046 220.105 396.738 220.105C394.913 220.105 393.246 220.385 393.035 220.727C392.824 221.069 392.251 221.196 391.762 221.008C391.273 220.821 390.68 220.98 390.444 221.362C390.208 221.744 389.31 222.057 388.45 222.057C387.589 222.057 385.631 222.452 384.099 222.934C382.566 223.415 379.556 224.309 377.41 224.921C375.264 225.532 372.923 226.293 372.208 226.611C370.278 227.469 360.22 230.321 357.413 230.807C356.072 231.039 354.974 231.473 354.974 231.771C354.974 232.491 352.02 233.621 348.796 234.133C346.145 234.555 345.019 234.847 338.717 236.743C336.749 237.336 334.555 237.923 333.839 238.048C331.915 238.387 316.741 243.408 313.354 244.827C309.251 246.546 288.236 253.299 286.988 253.299C286.421 253.299 284.586 253.861 282.91 254.548C281.234 255.236 278.108 256.377 275.962 257.083C266.109 260.33 247.246 266.975 246.329 267.523C244.938 268.353 230.595 274.12 222.636 277.051C219.059 278.367 214.89 280.046 213.371 280.78C210.551 282.144 207.346 282.817 207.363 282.042C207.397 280.58 210.155 270.932 211.242 268.474C211.958 266.853 214.707 261.677 217.351 256.972C219.994 252.267 222.727 247.246 223.424 245.814C224.121 244.382 227.921 237.353 231.869 230.193C235.818 223.034 240.124 215.126 241.438 212.62C242.752 210.114 244.865 206.307 246.134 204.159C257.953 184.151 278.916 140.315 284.572 123.777C285.491 121.093 287.221 116.2 288.418 112.904C289.614 109.608 290.594 106.289 290.594 105.527C290.594 104.766 291.484 101.916 292.574 99.1938C293.662 96.4719 294.711 92.9085 294.904 91.2748C295.096 89.6418 295.546 87.5272 295.904 86.5763C296.562 84.8248 298.356 77.4818 300.012 69.7561C300.511 67.4293 301.391 63.7682 301.967 61.6203C302.543 59.4725 303.448 54.7863 303.978 51.2065C304.508 47.6268 305.213 42.9406 305.543 40.7928C305.873 38.6449 306.43 34.9838 306.779 32.657C307.129 30.3302 307.619 23.1401 307.868 16.6797C308.262 6.4729 308.181 4.66221 307.255 2.86779C305.487 -0.551836 304.287 -0.777034 299.795 1.46974ZM299.991 7.55463C296.164 9.36793 289.993 15.5667 285.723 21.8872C282.318 26.9268 274.031 43.171 269.769 53.1591C262.739 69.6344 256.043 88.5679 249.627 110.109C248.507 113.868 247.285 117.822 246.91 118.896C246.534 119.97 245.835 122.02 245.354 123.452C244.463 126.107 238.296 146.06 236 153.717C234.719 157.991 232.133 168.608 230.769 175.195C230.361 177.164 229.642 179.8 229.172 181.053C228.701 182.306 227.965 185.235 227.537 187.562C227.11 189.889 226.232 193.55 225.587 195.698C223.085 204.034 215.227 236.518 214.841 240.121C214.717 241.285 214.174 244.068 213.634 246.304C211.949 253.282 211.669 255.953 212.662 255.567C213.14 255.38 213.857 254.574 214.255 253.775C215.933 250.406 224.793 233.864 226.364 231.169C229.365 226.017 232.67 219.94 235.744 213.922C237.39 210.7 240.159 205.694 241.898 202.798C244.9 197.797 257.662 173.274 264.56 159.249C275.198 137.619 281.111 123.096 286.685 104.903C287.836 101.144 289.308 96.6041 289.955 94.8142C290.603 93.0243 292.048 87.4595 293.168 82.4479C294.288 77.4362 295.756 71.432 296.431 69.1052C299.29 59.2395 303.5 30.5899 304.568 13.7254C305.062 5.93008 304.635 5.35472 299.991 7.55463ZM186.053 81.9519C185.371 82.9406 183.403 86.9713 181.68 90.909C179.957 94.8467 177.764 99.8258 176.807 101.974C175.851 104.122 174.121 108.954 172.963 112.713C168.582 126.934 166.232 134.663 164.947 139.073C164.217 141.579 163.221 144.654 162.735 145.907C162.248 147.16 161.539 149.634 161.159 151.405C160.779 153.176 159.043 159.327 157.3 165.073C155.557 170.819 153.689 177.571 153.148 180.077C152.607 182.583 151.883 185.733 151.538 187.077C151.193 188.422 151.154 189.671 151.45 189.854C152.239 190.342 153.958 187.622 154.749 184.633C155.128 183.201 157.299 177.636 159.573 172.267C164.295 161.114 167.683 152.426 167.689 151.454C167.691 151.088 168.073 150.056 168.538 149.161C169.003 148.266 170.064 145.484 170.895 142.978C171.725 140.472 172.639 137.836 172.925 137.12C173.211 136.404 174.172 133.475 175.062 130.612C175.951 127.748 177.582 122.622 178.686 119.221C179.79 115.821 180.692 112.528 180.692 111.905C180.692 111.282 181.433 108.499 182.341 105.722C185.272 96.746 185.821 94.9014 187.169 89.4986C188.614 83.7053 188.824 81.1012 187.894 80.5259C187.564 80.3215 186.736 80.9632 186.053 81.9519ZM190.55 224.166C190.135 224.581 189.795 225.439 189.795 226.073C189.795 226.707 189.264 228.185 188.614 229.36C187.964 230.534 186.624 233.545 185.637 236.051C184.649 238.557 182.951 242.511 181.865 244.838C180.779 247.164 179.667 249.654 179.392 250.37C177.241 255.988 163.602 284.66 156.598 298.289C153.063 305.166 152.715 306.669 154.658 306.669C156.228 306.669 166.456 301.734 167.169 300.632C167.453 300.194 168.005 298.664 168.396 297.232C168.787 295.8 169.636 293.31 170.282 291.7C171.466 288.751 175.029 277.87 184.245 249.068C186.994 240.477 189.73 231.983 190.324 230.193C190.919 228.403 191.417 226.646 191.43 226.288C191.444 225.93 191.672 225.292 191.937 224.869C192.601 223.808 191.477 223.238 190.55 224.166ZM130.834 245.651C130.554 246.099 129.859 247.343 129.29 248.417C128.721 249.491 126.991 252.713 125.446 255.577C123.901 258.441 119.207 267.384 115.013 275.451C110.82 283.519 106.076 292.452 104.469 295.303C102.863 298.153 100.818 301.951 99.9229 303.74C99.0287 305.53 95.7986 311.541 92.7448 317.098C89.6909 322.655 86.2729 329.231 85.1491 331.713C84.0247 334.194 82.6663 336.71 82.1298 337.303C81.5933 337.896 80.8903 339.301 80.569 340.424C80.1099 342.027 80.1814 342.467 80.9026 342.467C81.4086 342.467 86.6962 340.124 92.6537 337.26C98.6112 334.396 103.63 332.053 103.807 332.053C104.353 332.053 114.44 326.811 116.967 325.215L119.356 323.706L120.127 315.254C120.551 310.606 121.299 305.235 121.789 303.319C122.279 301.403 122.892 297.941 123.151 295.627C123.412 293.312 124.113 289.651 124.711 287.491C125.31 285.331 125.872 281.953 125.962 279.984C126.052 278.015 126.549 274.901 127.066 273.064C127.584 271.227 128.323 267.419 128.707 264.603C129.092 261.787 130.118 256.582 130.988 253.039C131.856 249.496 132.568 246.2 132.568 245.717C132.568 244.612 131.51 244.572 130.834 245.651ZM194.839 298.045C192.635 301.333 186.544 313.091 186.544 314.059C186.544 315.125 178.484 329.992 176.652 332.305C174.519 334.997 174.532 335.039 177.59 335.172C179.117 335.24 182.268 335.46 184.593 335.663C187.425 335.91 189.678 335.73 191.421 335.117L194.022 334.203L194.492 329.711C194.751 327.24 195.263 322.144 195.63 318.385C195.996 314.626 196.72 309.501 197.238 306.995C197.756 304.489 198.379 300.901 198.623 299.022C199.03 295.894 198.958 295.605 197.771 295.605C196.998 295.605 195.815 296.589 194.839 298.045ZM182.463 302.137C179.068 304.271 176.799 307.381 176.785 309.924C176.779 310.819 176.339 312.989 175.806 314.746C175.274 316.503 174.838 319.131 174.838 320.585C174.838 323.19 174.856 323.21 176.048 321.946C177.342 320.573 187.194 301.888 187.194 300.807C187.194 299.691 185.676 300.118 182.463 302.137ZM169.115 309.403C168.686 309.832 168.326 310.784 168.315 311.518C168.304 312.252 167.574 314.024 166.692 315.456C165.811 316.888 165.089 318.851 165.087 319.82C165.085 320.788 164.331 323.57 163.411 326.003C159.476 336.41 159.452 337.093 163.064 336.298C164.708 335.937 165.067 335.37 166.288 331.206C167.552 326.896 170.251 315.794 171.266 310.737C171.717 308.485 170.678 307.839 169.115 309.403ZM158.173 312.383C157.054 313.358 154.221 315.32 151.876 316.745C148.203 318.977 147.245 319.983 144.956 324.01C142.112 329.013 138.51 332.704 136.472 332.704C134.654 332.704 132.568 335.249 132.568 337.468C132.568 339.352 132.614 339.377 135.332 338.976C136.852 338.752 141.315 338.237 145.249 337.833C154.797 336.85 155.009 336.749 155.985 332.678C156.429 330.825 157.364 327.803 158.062 325.962C160.052 320.714 163.133 311.687 163.133 311.103C163.133 309.933 160.083 310.72 158.173 312.383ZM127.717 326.221C124.943 327.99 122.863 332.464 121.98 338.561C121.804 339.77 126.513 340.325 127.614 339.225C128.537 338.304 130.696 330.482 130.836 327.557C130.964 324.892 130.269 324.595 127.717 326.221ZM103.954 338.235C90.0057 344.953 89.8509 345.042 90.9538 345.725C91.8695 346.291 91.874 346.29 102.003 344.355C117.595 341.378 117.611 341.369 117.611 335.813C117.611 333.276 117.401 332.708 116.473 332.729C115.846 332.743 110.213 335.221 103.954 338.235ZM199.745 340.658C198.929 341.561 198.533 343.162 198.437 345.952C198.361 348.152 197.989 353.027 197.611 356.786C196.868 364.164 196.047 385.25 196.051 396.814C196.054 404.52 196.874 421.224 197.282 421.884C197.418 422.106 197.701 424.756 197.908 427.774C198.831 441.183 199.029 443.047 199.608 443.746C199.946 444.153 200.059 444.915 199.858 445.438C199.254 447.013 202.634 456.287 205.848 461.87C209.71 468.582 214.623 473.217 221.414 476.556C225.863 478.743 227.401 479.17 231.169 479.266C238.457 479.452 242.69 477.835 247.401 473.064C253.315 467.074 261.908 453.091 266.158 442.54C273.706 423.802 274.6 399.656 268.44 380.889C262.975 364.239 248.868 349.676 235.317 346.697C234.169 346.445 232.017 345.703 230.535 345.047C226.6 343.308 213.616 340.517 209.38 340.498C207.371 340.49 204.645 340.231 203.322 339.924C201.307 339.455 200.724 339.575 199.745 340.658ZM122.293 345.2C121.864 345.63 121.511 346.875 121.509 347.966C121.507 349.058 121.227 350.977 120.887 352.23C120.17 354.871 118.775 372.486 119.245 372.958C119.419 373.131 119.707 373.128 119.886 372.95C120.285 372.55 122.329 364.436 123.465 358.738C123.929 356.411 124.53 354.215 124.801 353.857C125.507 352.925 126.767 345.681 126.343 344.995C125.826 344.157 123.202 344.29 122.293 345.2ZM168.749 364.274C168.522 364.865 168.751 365.247 169.331 365.247C170.383 365.247 170.622 364.229 169.704 363.662C169.383 363.463 168.954 363.739 168.749 364.274Z" fill="black"/>
</svg>
